PathFileType	4	(X/Y/Z)	path1_08_0-572.trc
DataRate	CameraRate	NumFrames	NumMarkers	Units	OrigDataRate	OrigDataStartFrame	OrigNumFrames
30	30	7	22	m	30	143	572
Frame#	Time	Hip			RHip			RKnee			RAnkle			RBigToe			RSmallToe			RHeel			LHip			LKnee			LAnkle			LBigToe			LSmallToe			LHeel			Neck			Head			Nose			RShoulder			RElbow			RWrist			LShoulder			LElbow			LWrist		
		X1	Y1	Z1	X2	Y2	Z2	X3	Y3	Z3	X4	Y4	Z4	X5	Y5	Z5	X6	Y6	Z6	X7	Y7	Z7	X8	Y8	Z8	X9	Y9	Z9	X10	Y10	Z10	X11	Y11	Z11	X12	Y12	Z12	X13	Y13	Z13	X14	Y14	Z14	X15	Y15	Z15	X16	Y16	Z16	X17	Y17	Z17	X18	Y18	Z18	X19	Y19	Z19	X20	Y20	Z20	X21	Y21	Z21	X22	Y22	Z22
144	4.8	2.4347564462450646	0.8416667328356218	0.9463126610249861	2.4450684171009414	0.8044121426090769	0.8690862325572507	2.413440051009049	0.4719837167885378	0.8607735793873309	2.4575724401359276	0.11095190266546834	0.8764616291224878	2.2823512839214573	0.027076757718539655	0.8491981643846076	2.326194910173683	0.02360548187682956	0.7975909748931276	2.508455429736848	0.03455793357694782	0.8987053838473936	2.431890276466432	0.7992046300001483	1.0303643132696585	2.4265255390435327	0.4512932795150967	1.0396614716453103	2.455234950746705	0.11204257282596072	1.024884176118344	2.300044546901574	0.02192979350954391	1.0576995789014845	2.3608751888785853	0.02248275966329665	1.1110003020714132	2.499654462273715	0.040985781092810376	1.021552384170265	2.406313025807831	1.4628563680211066	0.9520812535562071	2.344136163782173	1.6972487548559179	0.9363218932148791	2.2806176112651575	1.6040220268011216	0.931827648660024	2.4669251986882297	1.374128860625151	0.7929811254417911	2.4816031320136975	1.076695482155729	0.7722805371980412	2.443208477422822	0.8476104451954499	0.7425691351337282	2.4396155247753932	1.349416875626756	1.1038135317926283	2.4751134388654132	1.0629390667317904	1.1427352160248334	2.4633742858524617	0.8324814081047536	1.1419702442226318
145	4.833333333333333	2.4333564758348794	0.842166205204682	0.9457925980515582	2.4439492042643276	0.8035505836204948	0.8700406423935412	2.413388964368051	0.4721074673888662	0.8605735969672493	2.457247207712021	0.11121032495707513	0.8766433582043738	2.2819218250195457	0.026544054880389405	0.8491518837720267	2.326120768752774	0.023259374238440236	0.7974261805299804	2.508278779363988	0.03435341544358091	0.8991516137559354	2.43116711551424	0.7984193938714943	1.0302456477443864	2.422997570135247	0.45444299684363254	1.0353755821023671	2.4539776395210624	0.11256677098357533	1.0251447188457323	2.300469583671431	0.021943303733894706	1.0587314511094577	2.3593085226975745	0.02292027738751055	1.1113893294696688	2.4984006439444584	0.041111585780517275	1.0215333934923536	2.4058593447105543	1.4632148553515854	0.9520475850689429	2.3434077631375043	1.6967344698878073	0.937124012767316	2.278503053195441	1.6031472417221693	0.9341240808132567	2.466680682358338	1.374151203909494	0.7935815578619554	2.4777039335673563	1.0772414828627654	0.7661239861560063	2.4427566581368496	0.8475696153203166	0.7423875829657581	2.439244069584265	1.348889682380173	1.1039180159585449	2.4750993964191075	1.0622844066103538	1.1418675949080648	2.462728418339459	0.8318047002541923	1.1412830389874231
146	4.866666666666666	2.432638280029033	0.8425350704609613	0.9452670200592941	2.443513830888724	0.8032169438234316	0.8708578034940248	2.413224288018656	0.4722333835617758	0.8604201326087775	2.4570219215184967	0.1114938205374248	0.8767602922029777	2.281449882131689	0.026129116350202895	0.8490854499467457	2.3258629693856028	0.0230314180751658	0.7970855727069952	2.5079432291366297	0.034414261418435566	0.8995752493138705	2.4309921821904106	0.7982673636172998	1.030180600070692	2.4217283397429026	0.45556246081683943	1.0339601804776593	2.4528954716270457	0.1129984549342808	1.0254173434247407	2.30120092153614	0.02191498685522086	1.0598257098410822	2.3579915269065728	0.023308671313373906	1.1116738707148124	2.4972339618814705	0.0411244218786055	1.021455046074856	2.4053547766263126	1.463208581145011	0.9519733683809137	2.3434496647176135	1.6964823308947086	0.9370311118832654	2.275939603259848	1.601596509646446	0.9364036560662067	2.4664373181713573	1.3741941451186157	0.7939547767861582	2.4751817654704604	1.0774709875620305	0.7618800916489175	2.4421683310216675	0.8474267433366734	0.7421719638620237	2.4389064966132965	1.3485715257248116	1.1038854057758078	2.4750295330881054	1.0624365166599636	1.1418155835801542	2.4624304110142923	0.8316583424499776	1.1410624984645323
147	4.9	2.4327171705141444	0.8427266523073715	0.9448373784928494	2.4439588561558985	0.8035177376897407	0.8715157998105005	2.412998966425526	0.47232538294557824	0.8603121550391368	2.4570490656820194	0.11166039431225505	0.8767709936325762	2.281178285639291	0.025900930067697833	0.8490779184197007	2.3256664735389787	0.022949436753683754	0.7967122526611775	2.507580886102458	0.03464022780715778	0.8998720038610286	2.4313974488598378	0.7988731791763956	1.0303348764803204	2.4224945280700454	0.4549711690029741	1.0350417914870267	2.452241270087382	0.11325742031816527	1.0256565369303798	2.300531648983159	0.02240280558355939	1.0604945161109434	2.3571744707329265	0.02358195101519421	1.1117738670190012	2.4964652622915864	0.04105745607928306	1.021340524750254	2.404245695186281	1.462245823636931	0.951550229471233	2.3445599892576805	1.6968166607806299	0.9358530531516479	2.2733820408731047	1.5996826469817946	0.9379558508721467	2.466191065096446	1.3742369942733605	0.7940855291131116	2.474233357415202	1.0773247115275157	0.7599433315333096	2.441514000415807	0.8470629016285722	0.7418883637906913	2.4386532132270826	1.3485888705383187	1.1037275612168684	2.474962161073074	1.063069956441786	1.1423131260051216	2.462564742390171	0.8322004688647605	1.141380879400608
148	4.933333333333334	2.43335495615436	0.8427774174495932	0.9445781924458195	2.445032567269491	0.8043443168192923	0.8719911887445118	2.4128015062457315	0.47235832667878636	0.8602282737518429	2.4572964112410056	0.11166488997829035	0.8767086296655265	2.2811536603982385	0.02589082933942416	0.8491692129769918	2.325623110007124	0.023021524886359012	0.7964493697902005	2.507321801375039	0.03487825085517173	0.9000154415747977	2.432118159303637	0.8000630124095062	1.030724379635726	2.424043307308245	0.4538630470270912	1.0369424164067587	2.452055144918841	0.11336306089635974	1.025822976333485	2.2973249644792135	0.023761984322825138	1.060476052083433	2.356761946710984	0.023804006332763306	1.1117365876628644	2.4961974379462344	0.04100156986434271	1.0212348434031537	2.402410516242073	1.4603088296605018	0.9506788631686898	2.345899005987261	1.6974051803902483	0.934612919879098	2.2715820666959683	1.59815941744033	0.9384079304064782	2.465900769819394	1.3742823802557231	0.7940422464081162	2.4742420531638687	1.076948601137381	0.7595864881760036	2.44088386276829	0.8465252043659698	0.7415039229906961	2.4384544899296965	1.3488942482327635	1.103471181511717	2.474975099211871	1.0636818408236948	1.1428762679247164	2.4629808709980674	0.833123591086976	1.1419514813703544
149	4.966666666666667	2.4341588861218595	0.8427415756155572	0.9444824783151233	2.4462481118424786	0.8054282588437851	0.8722690977962756	2.412702380085715	0.4723187566208234	0.8601336187401243	2.457591974522872	0.11155554017841499	0.8766465865811403	2.2811924640646817	0.026084647207325996	0.8493210488600519	2.325627179652196	0.02321160862352721	0.7963387706644016	2.507192280958601	0.03504947522138552	0.9000472812174137	2.432814942890441	0.8014482776219473	1.0312243140774782	2.424923403841671	0.45349105413017743	1.0377934815988556	2.452185443198812	0.11339074873108881	1.0258845666039993	2.2922204358752714	0.025750781384819	1.0599539280469128	2.3564141466684307	0.024120702480911693	1.1116574331908167	2.4962886434636333	0.04097898169272753	1.0211606045894004	2.40033814190009	1.4580444357308913	0.9496006952199461	2.3469788876467015	1.698130833777931	0.9337421393435765	2.27074285009127	1.5974119516458027	0.9380929411074601	2.4655165614690766	1.3743715170575757	0.7938757708309746	2.4746932082594295	1.076528425022056	0.7602478849880233	2.4403176384877874	0.8459539362225961	0.7410226741458537	2.4382135282790403	1.3493493231736005	1.1031762486289487	2.47505771806651	1.0640421902009238	1.1432381627147121	2.463428429556787	0.8339588346397168	1.1423783671346326
150	5.0	2.4348498924911017	0.8426715649538093	0.9444991340421698	2.4472336684326863	0.8064938310042249	0.8723659420501395	2.4126733265933233	0.4722198859306277	0.8599858716044415	2.4578033647427295	0.11136584387887632	0.8766361558736283	2.2811474111725842	0.02639197558306071	0.849456102782759	2.32562054155901	0.02342514517236939	0.7963353671847597	2.507185513055706	0.03512992250181378	0.9000199613913861	2.433299181304359	0.8026722411817162	1.0317022595294336	2.424317126520725	0.4545324994997629	1.0365903756499766	2.4525346523742786	0.1133788357428831	1.0258409775585489	2.2871374082022777	0.027722185774067966	1.0593694623726475	2.3557412799482913	0.024652730850106042	1.1115950137341315	2.4965801521917417	0.04092074467300405	1.0211225681604967	2.3985386287731267	1.4561219074689153	0.9486054447221639	2.3485564015454075	1.6995933151156835	0.9319474002322536	2.2699169409861835	1.5967861739263463	0.9377604450759833	2.4650192474804604	1.3745311816460302	0.7935926386767457	2.475588429941311	1.0761261021480544	0.7620094566878421	2.439830797965807	0.8454357262372444	0.7404783480220667	2.437823498552883	1.3498296442550388	1.1029159338523826	2.4751185705592036	1.0641825234587268	1.143345236512673	2.4637227368670565	0.8344667427106166	1.1424677542572477
